<?xml version="1.0" encoding="utf-8"?>
<!-- Generator: Adobe Illustrator 25.0.0, SVG Export Plug-In . SVG Version: 6.00 Build 0)  -->
<svg version="1.1" id="Layer_1" xmlns="http://www.w3.org/2000/svg" xmlns:xlink="http://www.w3.org/1999/xlink" x="0px" y="0px"
	 viewBox="0 0 60 16" style="enable-background:new 0 0 60 16;" xml:space="preserve">
<style type="text/css">
	.st0{fill:none;stroke:#EC5E2A;stroke-miterlimit:10;}
</style>
<g>
	<path d="M-0.5,4h6 M4.5,4h36 M39.5,4h21"/>
</g>
<g>
	<path class="st0" d="M0,1.6l0.8-0.2l0.8-1.2l0.8,0.6l0.8-0.2h0.8L5,0 M5,0l0.8,12.7L6.7,16l0.8-1.9l0.8-4.7l0.8,0.9L10,7.6l0.8,2.6
		l0.8-1.3l0.8-2.3l0.8-1.2l0.8,1.9L15,9.6l0.8-1.4l0.8,2.7l0.8,0.2l0.8-1.3l0.8-0.6L20,9.7L20.8,9l0.8-2L22.5,6l0.8,0.8l0.8,1.4
		L25,9.8l0.8-0.4l0.8,1.7l0.8,0.9l0.8,1.6l0.8-1.2l0.8-0.8l0.8-1.6l0.8-1l0.8,0.4l0.8-0.9l0.8-0.2L35,8l0.8-0.1l0.8,0.9l0.8-0.6
		l0.8-1.3l0.8-1.3L40,5 M40,5h2.5l0.8,0.3l0.8-0.2L45,5.3l0.8-0.1h0.8l0.8,0.2l0.8,0.8L49.2,5L50,5.8l0.8-0.4l0.8,0h2.5L55,5.4
		l0.8,0l0.8,0.1H60"/>
</g>
</svg>
