<?xml version="1.0" encoding="utf-8"?>
<!-- Generator: Adobe Illustrator 25.0.0, SVG Export Plug-In . SVG Version: 6.00 Build 0)  -->
<svg version="1.1" id="Layer_1" xmlns="http://www.w3.org/2000/svg" xmlns:xlink="http://www.w3.org/1999/xlink" x="0px" y="0px"
	 viewBox="0 0 183.2 245.4" style="enable-background:new 0 0 183.2 245.4;" xml:space="preserve">
<style type="text/css">
	.st0{fill:#FFFFFF;}
</style>
<g>
	<path class="st0" d="M76.8,192.7l-1.8,0.7c-10.5,3.5-26.2,8.7-39.8,15.3c-0.7,0.3-1.4,1.4-1.4,1.4c-0.4,0.7-0.7,1.4-1,2.1
		c-1.5,3.5-3.8,8.7-4.6,11.2l-0.7,1.8v0.7l0.3,0.4h0.4l1.7-0.7c3.9-1.8,8.8-4.6,13.7-7H44c9-4.2,18-8.5,26.9-12.9c0,0,1-0.7,1.8-1.7
		l4.9-9.8v-0.7C77.5,192.7,77.1,192.4,76.8,192.7 M37.7,177.3c0.7-1.4,3.8-7.3,4.6-8.7v-0.3C63.5,128.1,89.4,90.4,119,55.9l0.7-1.1
		c0.4-0.4,0.4-0.7,0-1c-0.4-0.4-0.7-0.7-1-0.4h-1.4c-19.6,2.8-39.5,6.3-59,11.2c-2.1,0.7-3.2,1.8-3.5,2.1
		c-14.6,17.5-28.3,36-41.2,54.8c0.4,1,0.4,3.1,0.4,3.1s3.1,24.4,7.7,42.6C10.5,200.4,0,244.3,0,244.3v0.7c0,0.3,0.4,0.3,0.7,0.3h6.6
		c0.3,0,0.7-0.3,1.1-0.7l0.3-1.4c6.6-18.1,14.3-36.3,22.7-53.8C33.5,185.7,37.7,177.3,37.7,177.3"/>
	<path class="st0" d="M129.2,63.2v-1.4c0-0.4-0.4-0.7-0.7-1c-0.4,0-0.7,0-1.1,0.3l-0.7,1.1c-35,40.1-63.9,84.8-86.9,132.6l-0.7,1
		v1.1c0.3,0.3,0.3,0.3,0.7,0.3h0.3l1-0.3c19.5-8,39.5-15,59.3-21c1-0.3,2.1-1,2.8-2.1c8.8-16.8,28.9-49.6,28.9-49.6
		c0.7-1.1,0.4-2.1,0.4-2.1S129.2,83.1,129.2,63.2"/>
	<path class="st0" d="M173.8,6.7C169,2.5,161.6,0.4,150.4,0c-9.7-0.4-21.7,2.1-35.3,6.3c-2.1,0.7-3.5,1.8-5.2,3.1
		C96,22.4,82.8,36.3,70.2,50.3l-1.1,1c-0.3,0.4-0.3,0.7,0,1.1c0.3,0.4,0.7,0.7,1.1,0.4l1.4-0.4c20.6-4.5,41.2-7.7,61.4-9.8
		c1.4,0,2.8,0.4,3.8,1.1c1.1,1.1,1.4,2.1,1.4,3.5c-0.3,20.3,0.4,40.5,2.1,60v1.4c0,0.3,0.4,0.7,0.7,0.7h0.4c0.4,0,0.7,0,0.7-0.4
		l0.7-1c11.5-16.4,23.7-32.1,37-47.1c1.4-1.8,1.8-2.8,2.1-4.2C186,31.1,179.7,11.6,173.8,6.7"/>
</g>
</svg>
