<?xml version="1.0" encoding="utf-8"?>
<!-- Generator: Adobe Illustrator 25.0.0, SVG Export Plug-In . SVG Version: 6.00 Build 0)  -->
<svg version="1.1" id="Layer_1" xmlns="http://www.w3.org/2000/svg" xmlns:xlink="http://www.w3.org/1999/xlink" x="0px" y="0px"
	 viewBox="0 0 60 16" style="enable-background:new 0 0 60 16;" xml:space="preserve">
<style type="text/css">
	.st0{fill:none;stroke:#5AC53B;stroke-miterlimit:10;}
</style>
<g>
	<path d="M-0.5,16h6 M4.5,16h36 M39.5,16h21"/>
</g>
<g>
	<path class="st0" d="M0,10.7l0.8-0.1l0.8,0.1l0.8,0.5l0.8,0.3l0.8-0.2L5,10.7 M5,10.7l0.8,1l0.8,0.7l0.8-2.8l0.8,1L9.2,10L10,9.4
		l0.8,0.5l0.8-0.5l0.8-1l0.8,0l0.8-0.7L15,7.8l0.8-0.7l0.8,1.4l0.8,1.1l0.8-0.4l0.8-0.8L20,7.8L20.8,7l0.8,0l0.8,1L23.3,8l0.8,0.5
		l0.8,0l0.8-1.1l0.8,1.2L27.5,9l0.8,0.5L29.2,9L30,8.7L30.8,9l0.8-0.2l0.8,0.5L33.3,9l0.8-1.2l0.8-1l0.8-1.1L36.7,5l0.8-0.7l0.8-1
		l0.8-0.2L40,1.7 M40,1.7L40.8,0l0.8,1.4l0.8,0.3l0.8-0.6l0.8,0.1l0.8,0l0.8-0.1L46.7,1L47.5,1l0.8,0.2l0.8,0.6L50,1.1h0.8l0.8,0.1
		l0.8,0l0.8,0l0.8,0l0.8,0l0.8,0.6h0.8L57.5,1L58.3,1L59.2,1L60,0.8"/>
</g>
</svg>
